<svg width="100" height="100" viewBox="0 0 100 100" fill="none" xmlns="http://www.w3.org/2000/svg">
<circle cx="50" cy="50" r="50" fill="url(#paint0_linear_349_438)"/>
<path d="M78.194 38.2519C76.8119 35.3196 74.5089 32.9009 71.6239 31.352C69.9587 30.4574 68.1374 29.878 66.2548 29.6441C65.6115 29.5639 64.9637 29.5236 64.3152 29.5235C62.8313 29.5225 61.3551 29.734 59.9331 30.1513C59.8644 30.1718 59.7951 30.1917 59.727 30.2116C55.3566 31.5595 51.3036 33.7513 47.8056 36.6585L47.6602 36.714C46.9358 36.7586 46.2064 36.784 45.4703 36.784C33.6428 36.784 23.2076 30.9256 17 22C17.2773 34.4838 24.4105 45.3055 34.8438 50.9739C32.3301 54.8046 30.2475 58.8926 28.6325 63.1658C28.5663 63.3401 28.4994 63.5144 28.435 63.6893C26.1551 69.892 24.8809 76.4084 24.6589 83C26.6327 76.5616 30.5054 70.8438 35.7866 66.5708C36.0921 66.3236 36.4014 66.0811 36.7147 65.8435C37.8497 65.9716 38.9913 66.036 40.1338 66.0365C47.2997 66.0467 54.2272 63.506 59.6356 58.8839C59.6657 58.8839 59.6969 58.8876 59.7239 58.8894L59.6546 58.867C61.6012 57.2037 63.3211 55.3001 64.7716 53.2035C65.2427 52.5228 65.6845 51.8222 66.0971 51.1018C66.5764 50.2655 67.0136 49.4051 67.4086 48.5206C68.0844 47.3496 68.6846 46.138 69.2059 44.893C71.0356 43.152 73.4533 42.1344 75.9976 42.0343C78.5419 41.9342 81.0346 42.7586 83 44.3502C82.2726 41.7768 80.5469 39.587 78.194 38.2519Z" fill="white"/>
<defs>
<linearGradient id="paint0_linear_349_438" x1="94.8952" y1="5.10417" x2="5.10417" y2="94.8952" gradientUnits="userSpaceOnUse">
<stop stop-color="#1D4DA2"/>
<stop offset="1" stop-color="#01026E"/>
</linearGradient>
</defs>
</svg>
