<svg width="37" height="21" viewBox="0 0 37 21" fill="none" xmlns="http://www.w3.org/2000/svg">
<path d="M35.2934 1.03321C34.0582 0.582706 32.7434 0.391651 31.4311 0.471969C30.1188 0.552288 28.8371 0.902253 27.6661 1.50003L10.7289 9.83228L6.72037 7.06197C6.07289 6.61491 5.3252 6.33431 4.54346 6.245C3.76172 6.15569 2.97001 6.26044 2.23838 6.54994L0.448242 7.25748L7.44388 12.9364C8.33869 13.6714 9.46755 14.0607 10.6252 14.0337C10.9162 14.0333 11.2049 13.981 11.4777 13.8794L18.4906 11.1782L18.5212 11.1902L19.129 9.58358L26.6207 6.62573L25.6764 8.25761L35.336 4.43261C35.6775 4.29584 35.9697 4.05887 36.174 3.75287C36.3783 3.44688 36.4852 3.08622 36.4806 2.71832C36.476 2.35042 36.3601 1.99254 36.1482 1.69176C35.9363 1.39098 35.6383 1.16139 35.2934 1.03321Z" fill="#E5F5FD"/>
<path d="M2.23838 8.05056C2.97001 7.76106 3.76172 7.65634 4.54346 7.74565C5.3252 7.83496 6.07289 8.11554 6.72038 8.56259L10.2754 11.0204C10.4128 11.1156 10.5732 11.1724 10.7399 11.1848C10.9066 11.1972 11.0737 11.1647 11.2236 11.0909L18.2313 7.64093L22.8928 5.34541L27.6634 2.99668C28.8344 2.3989 30.1161 2.04894 31.4284 1.96862C32.7408 1.8883 34.0556 2.07935 35.2908 2.52986C35.5208 2.61062 35.7318 2.73776 35.9107 2.90339C36.0896 3.06902 36.2326 3.26961 36.3308 3.49276C36.4352 3.256 36.4891 3.00008 36.4891 2.74132C36.4933 2.36659 36.3801 1.99994 36.1655 1.69275C35.9508 1.38555 35.6454 1.15322 35.2921 1.02833C34.0569 0.577823 32.7421 0.386768 31.4298 0.467087C30.1174 0.547405 28.8358 0.897371 27.6647 1.49515L22.8941 3.84388L18.2326 6.1394L10.7302 9.83272L6.7217 7.0624C6.07422 6.61535 5.32654 6.33475 4.54479 6.24544C3.76305 6.15613 2.97134 6.26087 2.23971 6.55037L0.448242 7.25791L1.69176 8.26736L2.23838 8.05056Z" fill="#B9C8DB"/>
<path d="M22.8933 3.84314L18.2318 6.13866L11.9424 2.08625L14.2645 0.673828L22.8933 3.84314Z" fill="#43CAF9"/>
<path d="M20.9343 4.78695L12.993 1.41016L11.9424 2.08577L18.2318 6.13819L20.9343 4.78695Z" fill="#29C2F8"/>
<path d="M20.0341 5.23765L12.6195 1.63477L11.9438 2.08561L18.2333 6.13804L20.0341 5.23765Z" fill="#00B8F8"/>
<path d="M26.6216 6.62695L25.6773 8.25883L19.0488 19.7059H15.3022L18.5221 11.1941L19.1299 9.58746L26.6216 6.62695Z" fill="#43CAF9"/>
<path d="M21.9833 8.53418L19.2808 9.58485L18.673 11.1915L15.4531 19.7033H16.8802L21.9833 8.53418Z" fill="#29C2F8"/>
<path d="M20.632 9.05957L19.2808 9.59155L18.673 11.1982L15.4531 19.71H16.1288L20.632 9.05957Z" fill="#00B8F8"/>
<path d="M35.4436 0.603739C34.1511 0.134217 32.776 -0.0649618 31.4034 0.0185389C30.0308 0.10204 28.6899 0.466439 27.4638 1.08917L22.8675 3.35012L14.4195 0.2473C14.3558 0.22392 14.2877 0.215253 14.2202 0.221933C14.1527 0.228612 14.0876 0.250473 14.0298 0.285878L11.7077 1.6983C11.6425 1.73798 11.5885 1.79354 11.5507 1.85979C11.5129 1.92603 11.4925 2.00079 11.4914 2.07706C11.4904 2.15333 11.5087 2.22863 11.5446 2.2959C11.5806 2.36317 11.633 2.42022 11.697 2.4617L17.3162 6.0832L10.7687 9.30971L6.97831 6.68967C6.27068 6.19946 5.45288 5.89171 4.59762 5.7938C3.74237 5.69588 2.87617 5.81083 2.07605 6.12843L0.284582 6.8373C0.211509 6.86629 0.147287 6.91389 0.0982883 6.97537C0.0492893 7.03684 0.0172158 7.11006 0.00525174 7.18776C-0.00671232 7.26546 0.0018482 7.34494 0.0300836 7.41831C0.0583191 7.49168 0.105249 7.55639 0.166215 7.60602L7.16185 13.285C8.10032 14.0531 9.27407 14.4756 10.4868 14.482H10.6384C10.9805 14.4799 11.3196 14.4173 11.6399 14.2971L17.7577 11.9417L14.8837 19.5425C14.8578 19.6107 14.8489 19.6842 14.8578 19.7566C14.8666 19.8291 14.8929 19.8983 14.9343 19.9583C14.9758 20.0183 15.0312 20.0674 15.0958 20.1013C15.1604 20.1352 15.2323 20.1529 15.3053 20.1529H19.0518C19.1307 20.1529 19.2083 20.1321 19.2766 20.0926C19.345 20.0532 19.4019 19.9965 19.4415 19.9282L25.9915 8.6168L35.5048 4.85033C35.9335 4.68071 36.3005 4.38472 36.5571 4.00165C36.8137 3.61857 36.9477 3.16653 36.9413 2.70552C36.935 2.24451 36.7886 1.79632 36.5216 1.42046C36.2545 1.0446 35.8795 0.758829 35.4463 0.60108L35.4436 0.603739ZM12.7903 2.09463L14.3118 1.16365L21.7503 3.89674L18.2604 5.61506L12.7903 2.09463ZM18.7884 19.2512H15.9556L19.4814 9.92682L25.5846 7.51691L18.7884 19.2512ZM35.171 4.01111L26.7164 7.35864L27.0116 6.84927C27.0585 6.76825 27.079 6.67465 27.0702 6.58147C27.0615 6.48828 27.024 6.40012 26.9629 6.32922C26.9018 6.25833 26.8201 6.20821 26.7292 6.18581C26.6384 6.16341 26.5428 6.16985 26.4557 6.20424L18.964 9.1621C18.9051 9.18593 18.8519 9.22194 18.8079 9.26778C18.7639 9.31363 18.7301 9.36826 18.7086 9.42808L18.1767 10.8179L11.306 13.4645C11.0816 13.547 10.8443 13.5889 10.6051 13.5882C9.55509 13.6123 8.53134 13.2583 7.72044 12.5907L1.32595 7.39189L2.40056 6.9663C3.063 6.70321 3.7802 6.60792 4.48835 6.6889C5.19651 6.76988 5.87368 7.02462 6.45963 7.43046L10.4682 10.2008C10.5342 10.2463 10.6111 10.2733 10.6911 10.2792C10.771 10.285 10.8511 10.2694 10.923 10.234L27.8628 1.89381C28.9792 1.32579 30.2004 0.993146 31.4507 0.916505C32.701 0.839865 33.9537 1.02087 35.1311 1.44827C35.3921 1.54394 35.6179 1.71659 35.7786 1.94341C35.9393 2.17022 36.0274 2.4405 36.0312 2.71846C36.0349 2.99642 35.9542 3.26896 35.7996 3.50003C35.6451 3.73109 35.424 3.90977 35.1657 4.01244L35.171 4.01111Z" fill="#1C3C6B"/>
</svg>
