<svg width="32" height="25" viewBox="0 0 32 25" fill="none" xmlns="http://www.w3.org/2000/svg">
<g clip-path="url(#clip0)">
<path d="M18.198 20.9737V24.515H13.8711V1.81036C13.8711 1.43382 14.0207 1.07271 14.2869 0.806457C14.5532 0.540206 14.9143 0.390625 15.2908 0.390625H26.6438C27.02 0.390625 27.3808 0.54007 27.6468 0.806091C27.9128 1.07211 28.0622 1.43292 28.0622 1.80913V24.5138H22.3858V20.9724L18.198 20.9737Z" fill="#E5F5FD"/>
<path d="M18.1982 20.9736H22.3848V24.515H18.1982V20.9736Z" fill="#00B8F8"/>
<path d="M13.8712 7.48535V24.5135H3.93799V8.90508C3.93766 8.52909 4.08663 8.16834 4.35215 7.90212C4.61767 7.63591 4.97802 7.486 5.35402 7.48535H13.8712Z" fill="#43CAF9"/>
<path d="M31.6097 24.1244H28.4513V1.80884C28.4506 1.3293 28.2598 0.869599 27.9208 0.530518C27.5817 0.191437 27.122 0.00065154 26.6424 0H15.2895C14.81 0.00065154 14.3503 0.191437 14.0112 0.530518C13.6721 0.869599 13.4813 1.3293 13.4807 1.80884V7.09251H5.35385C4.87432 7.09316 4.41462 7.28393 4.07554 7.62301C3.73645 7.9621 3.54567 8.42181 3.54502 8.90134V24.1207H0.390334C0.286811 24.1207 0.187528 24.1618 0.114326 24.235C0.041124 24.3082 0 24.4075 0 24.511C0 24.6145 0.041124 24.7138 0.114326 24.787C0.187528 24.8602 0.286811 24.9013 0.390334 24.9013H18.1216C18.1704 24.9109 18.2206 24.9109 18.2694 24.9013H22.3118C22.3606 24.9109 22.4108 24.9109 22.4596 24.9013H31.6097C31.7132 24.9013 31.8125 24.8602 31.8857 24.787C31.9589 24.7138 32 24.6145 32 24.511C32 24.4075 31.9589 24.3082 31.8857 24.235C31.8125 24.1618 31.7132 24.1207 31.6097 24.1207V24.1244ZM14.2614 1.80884C14.2617 1.53592 14.3702 1.27428 14.5632 1.0813C14.7562 0.888321 15.0178 0.779766 15.2907 0.779441H26.6437C26.9165 0.779767 27.178 0.888361 27.3708 1.08138C27.5636 1.27439 27.6718 1.53604 27.6718 1.80884V24.1231H22.7797V21.3637H24.0111C24.1146 21.3637 24.2139 21.3226 24.2871 21.2494C24.3603 21.1762 24.4014 21.0769 24.4014 20.9734C24.4014 20.8698 24.3603 20.7706 24.2871 20.6974C24.2139 20.6242 24.1146 20.583 24.0111 20.583H16.5738C16.4703 20.583 16.371 20.6242 16.2978 20.6974C16.2246 20.7706 16.1835 20.8698 16.1835 20.9734C16.1835 21.0769 16.2246 21.1762 16.2978 21.2494C16.371 21.3226 16.4703 21.3637 16.5738 21.3637H17.8051V24.1244H14.2589L14.2614 1.80884ZM21.9954 21.3625V24.1231H18.5932V21.3637L21.9954 21.3625ZM4.32815 8.90504C4.32815 8.63223 4.43644 8.37059 4.62922 8.17757C4.822 7.98456 5.08352 7.87597 5.35632 7.87564H13.4831V24.1293H4.32815V8.90504Z" fill="#1C3C6B"/>
<path d="M15.9997 5.03847H25.9329C26.0364 5.03847 26.1357 4.99736 26.2089 4.92415C26.2821 4.85095 26.3232 4.75167 26.3232 4.64815C26.3232 4.54463 26.2821 4.44533 26.2089 4.37212C26.1357 4.29892 26.0364 4.25781 25.9329 4.25781H15.9997C15.9485 4.25781 15.8977 4.2679 15.8503 4.28752C15.803 4.30713 15.76 4.33588 15.7237 4.37212C15.6875 4.40837 15.6587 4.4514 15.6391 4.49876C15.6195 4.54612 15.6094 4.59689 15.6094 4.64815C15.6094 4.69941 15.6195 4.75016 15.6391 4.79752C15.6587 4.84488 15.6875 4.88791 15.7237 4.92415C15.76 4.9604 15.803 4.98914 15.8503 5.00876C15.8977 5.02838 15.9485 5.03847 15.9997 5.03847Z" fill="#1C3C6B"/>
<path d="M15.9997 8.05509H25.9329C26.0364 8.05509 26.1357 8.01396 26.2089 7.94076C26.2821 7.86755 26.3232 7.76827 26.3232 7.66475C26.3232 7.56123 26.2821 7.46195 26.2089 7.38874C26.1357 7.31554 26.0364 7.27441 25.9329 7.27441H15.9997C15.9485 7.27441 15.8977 7.28452 15.8503 7.30414C15.803 7.32375 15.76 7.3525 15.7237 7.38874C15.6875 7.42499 15.6587 7.46802 15.6391 7.51538C15.6195 7.56274 15.6094 7.61349 15.6094 7.66475C15.6094 7.71601 15.6195 7.76676 15.6391 7.81412C15.6587 7.86148 15.6875 7.90451 15.7237 7.94076C15.76 7.977 15.803 8.00576 15.8503 8.02538C15.8977 8.045 15.9485 8.05509 15.9997 8.05509Z" fill="#1C3C6B"/>
<path d="M15.9997 11.0668H25.9329C26.0364 11.0668 26.1357 11.0257 26.2089 10.9525C26.2821 10.8793 26.3232 10.78 26.3232 10.6765C26.3232 10.573 26.2821 10.4737 26.2089 10.4005C26.1357 10.3273 26.0364 10.2861 25.9329 10.2861H15.9997C15.8962 10.2861 15.7969 10.3273 15.7237 10.4005C15.6505 10.4737 15.6094 10.573 15.6094 10.6765C15.6094 10.78 15.6505 10.8793 15.7237 10.9525C15.7969 11.0257 15.8962 11.0668 15.9997 11.0668Z" fill="#1C3C6B"/>
<path d="M15.9997 14.0893H25.9329C26.0364 14.0893 26.1357 14.0481 26.2089 13.9749C26.2821 13.9017 26.3232 13.8024 26.3232 13.6989C26.3232 13.5954 26.2821 13.4961 26.2089 13.4229C26.1357 13.3497 26.0364 13.3086 25.9329 13.3086H15.9997C15.8962 13.3086 15.7969 13.3497 15.7237 13.4229C15.6505 13.4961 15.6094 13.5954 15.6094 13.6989C15.6094 13.8024 15.6505 13.9017 15.7237 13.9749C15.7969 14.0481 15.8962 14.0893 15.9997 14.0893Z" fill="#1C3C6B"/>
<path d="M15.9997 17.1058H25.9329C26.0364 17.1058 26.1357 17.0647 26.2089 16.9915C26.2821 16.9183 26.3232 16.819 26.3232 16.7155C26.3232 16.612 26.2821 16.5127 26.2089 16.4395C26.1357 16.3663 26.0364 16.3252 25.9329 16.3252H15.9997C15.8962 16.3252 15.7969 16.3663 15.7237 16.4395C15.6505 16.5127 15.6094 16.612 15.6094 16.7155C15.6094 16.819 15.6505 16.9183 15.7237 16.9915C15.7969 17.0647 15.8962 17.1058 15.9997 17.1058Z" fill="#1C3C6B"/>
<path d="M6.20821 11.4242H11.6002C11.7038 11.4242 11.803 11.3831 11.8762 11.3099C11.9494 11.2367 11.9906 11.1374 11.9906 11.0339C11.9906 10.9303 11.9494 10.8311 11.8762 10.7579C11.803 10.6847 11.7038 10.6436 11.6002 10.6436H6.20821C6.10468 10.6436 6.0054 10.6847 5.9322 10.7579C5.859 10.8311 5.81787 10.9303 5.81787 11.0339C5.81787 11.1374 5.859 11.2367 5.9322 11.3099C6.0054 11.3831 6.10468 11.4242 6.20821 11.4242Z" fill="#1C3C6B"/>
<path d="M11.6002 13.3037H6.20821C6.10468 13.3037 6.0054 13.3448 5.9322 13.418C5.859 13.4912 5.81787 13.5905 5.81787 13.694C5.81787 13.7976 5.859 13.8968 5.9322 13.97C6.0054 14.0432 6.10468 14.0844 6.20821 14.0844H11.6002C11.7038 14.0844 11.803 14.0432 11.8762 13.97C11.9494 13.8968 11.9906 13.7976 11.9906 13.694C11.9906 13.5905 11.9494 13.4912 11.8762 13.418C11.803 13.3448 11.7038 13.3037 11.6002 13.3037Z" fill="#1C3C6B"/>
<path d="M11.6002 15.9639H6.20821C6.10468 15.9639 6.0054 16.005 5.9322 16.0782C5.859 16.1514 5.81787 16.2507 5.81787 16.3542C5.81787 16.4577 5.859 16.557 5.9322 16.6302C6.0054 16.7034 6.10468 16.7445 6.20821 16.7445H11.6002C11.7038 16.7445 11.803 16.7034 11.8762 16.6302C11.9494 16.557 11.9906 16.4577 11.9906 16.3542C11.9906 16.2507 11.9494 16.1514 11.8762 16.0782C11.803 16.005 11.7038 15.9639 11.6002 15.9639Z" fill="#1C3C6B"/>
<path d="M11.6002 18.625H6.20821C6.10468 18.625 6.0054 18.6661 5.9322 18.7393C5.859 18.8125 5.81787 18.9118 5.81787 19.0153C5.81787 19.1188 5.859 19.2181 5.9322 19.2913C6.0054 19.3645 6.10468 19.4057 6.20821 19.4057H11.6002C11.7038 19.4057 11.803 19.3645 11.8762 19.2913C11.9494 19.2181 11.9906 19.1188 11.9906 19.0153C11.9906 18.9118 11.9494 18.8125 11.8762 18.7393C11.803 18.6661 11.7038 18.625 11.6002 18.625Z" fill="#1C3C6B"/>
<path d="M11.6002 21.2861H6.20821C6.10468 21.2861 6.0054 21.3272 5.9322 21.4004C5.859 21.4736 5.81787 21.5729 5.81787 21.6765C5.81787 21.78 5.859 21.8793 5.9322 21.9525C6.0054 22.0257 6.10468 22.0668 6.20821 22.0668H11.6002C11.7038 22.0668 11.803 22.0257 11.8762 21.9525C11.9494 21.8793 11.9906 21.78 11.9906 21.6765C11.9906 21.5729 11.9494 21.4736 11.8762 21.4004C11.803 21.3272 11.7038 21.2861 11.6002 21.2861Z" fill="#1C3C6B"/>
</g>
<defs>
<clipPath id="clip0">
<rect width="32" height="24.9112" fill="white"/>
</clipPath>
</defs>
</svg>
