<svg width="36" height="31" viewBox="0 0 36 31" fill="none" xmlns="http://www.w3.org/2000/svg">
<path d="M0.558433 25.9692H4.65879C4.80378 25.9692 4.94284 25.9116 5.04537 25.809C5.1479 25.7065 5.2055 25.5674 5.2055 25.4224C5.2055 25.2774 5.1479 25.1384 5.04537 25.0359C4.94284 24.9333 4.80378 24.8757 4.65879 24.8757H0.558433C0.413435 24.8757 0.274376 24.9333 0.171848 25.0359C0.0693188 25.1384 0.0117188 25.2774 0.0117188 25.4224C0.0117188 25.5674 0.0693188 25.7065 0.171848 25.809C0.274376 25.9116 0.413435 25.9692 0.558433 25.9692Z" fill="#1C3C6B"/>
<path d="M0.558433 23.7823H1.92522C2.07021 23.7823 2.20927 23.7247 2.3118 23.6221C2.41433 23.5196 2.47193 23.3806 2.47193 23.2356C2.47193 23.0906 2.41433 22.9515 2.3118 22.849C2.20927 22.7464 2.07021 22.6888 1.92522 22.6888H0.558433C0.413435 22.6888 0.274376 22.7464 0.171848 22.849C0.0693188 22.9515 0.0117188 23.0906 0.0117188 23.2356C0.0117188 23.3806 0.0693188 23.5196 0.171848 23.6221C0.274376 23.7247 0.413435 23.7823 0.558433 23.7823Z" fill="#1C3C6B"/>
<path d="M0.0117188 29.5297V27.4726C0.649552 27.5182 2.00722 27.7186 2.33525 28.156C2.74529 28.7027 4.11207 28.7027 4.65879 28.4294C5.09616 28.2107 6.29893 27.7004 6.84564 27.4726C6.6634 25.6958 6.32626 21.6228 6.43561 19.5453C6.54495 17.4677 8.66802 10.7523 9.71589 7.65423C7.43791 7.47199 2.8273 8.44696 2.60861 13.8048C0.558433 12.1646 2.33525 6.97082 6.84564 6.42411C6.84564 5.33068 3.01864 4.64729 0.695111 7.24418C1.3785 3.41718 6.70896 2.73378 8.62246 5.60403C9.0325 3.96389 5.88889 0.683614 3.292 1.09365C6.84564 0.1369 10.1259 0.410247 10.3993 5.60403C13.8162 1.50368 18.19 2.18706 19.8301 5.60403C15.8664 3.82722 14.363 4.10058 12.0394 6.42411C16.5498 5.60403 19.6934 8.20093 18.8733 13.1214C18.3266 9.97775 15.6399 7.65422 12.5861 7.92757C15.7297 10.6611 17.6432 14.4881 13.1329 17.9051C14.363 13.8048 14.363 10.7341 10.3993 8.61096C9.71589 9.56771 8.21243 20.912 12.0394 28.156C13.8162 27.1992 15.0463 27.4726 15.4564 28.156C15.8664 28.8394 18.0533 28.7027 18.6 28.4294C19.1467 28.156 20.9235 27.3359 22.017 28.156C23.1104 28.9761 24.8872 29.1128 25.7073 28.4294C26.5273 27.7459 28.3042 27.3359 29.3976 28.156C30.491 28.9761 31.7211 28.4294 32.5412 28.156C33.1972 27.9373 34.4547 27.6093 35.0014 27.4726V29.6664C34.4091 29.6208 33.1152 29.6117 32.6779 29.9397C32.1312 30.3498 30.3543 31.0332 29.6709 30.2131C28.9876 29.393 27.8941 29.393 26.9374 29.8031C25.9806 30.2131 23.7938 30.8965 22.9737 30.3498C22.1536 29.8031 20.7868 29.2563 20.2401 29.6664C19.6934 30.0764 19.01 31.0332 17.2332 30.4864C15.4564 29.9397 14.6363 29.2563 13.4062 29.6664C12.1761 30.0764 11.2194 31.3065 9.57921 30.4864C7.93907 29.6664 6.43561 29.1197 5.61554 29.9397C4.79546 30.7598 2.60861 30.6231 1.92522 30.0764C1.3785 29.639 0.421754 29.5297 0.0117188 29.5297Z" fill="#E5F5FD"/>
<path d="M34.4533 27.0626C33.7373 27.0489 33.0368 27.2718 32.4605 27.6967C32.0549 27.9952 31.5645 28.1561 31.0609 28.1561C30.5573 28.1561 30.0669 27.9952 29.6613 27.6967C29.0792 27.2842 28.3834 27.0627 27.6699 27.0627C26.9565 27.0627 26.2606 27.2842 25.6785 27.6967C25.2733 27.9949 24.7834 28.1558 24.2803 28.1558C23.7772 28.1558 23.2873 27.9949 22.8821 27.6967C22.3 27.2842 21.6041 27.0627 20.8907 27.0627C20.1772 27.0627 19.4814 27.2842 18.8993 27.6967C18.4942 27.9953 18.0042 28.1564 17.501 28.1564C16.9978 28.1564 16.5079 27.9953 16.1028 27.6967C15.5274 27.272 14.8279 27.049 14.1128 27.0626C13.4947 27.0452 12.8856 27.2127 12.3633 27.5437C9.56138 21.1991 9.81834 14.2749 10.7232 9.09207C11.9726 9.91517 12.8801 11.1646 13.2763 12.6074C13.6153 13.8777 13.5648 15.2205 13.1314 16.4618C13.0768 16.5985 12.7269 17.3775 12.5847 17.6345C12.4935 17.7188 12.4338 17.8315 12.4152 17.9543C12.4025 18.0331 12.4071 18.1137 12.4288 18.1905C12.4505 18.2673 12.4887 18.3384 12.5408 18.3988C12.5929 18.4592 12.6576 18.5075 12.7304 18.5403C12.8031 18.5731 12.8822 18.5895 12.9619 18.5885C13.0945 18.5891 13.2227 18.5415 13.3228 18.4545C13.9983 18.1352 14.5885 17.6602 15.0449 17.0686C15.6372 16.3341 16.043 15.4671 16.2277 14.5418C16.4123 13.6165 16.3704 12.6602 16.1055 11.7546C15.7431 10.4251 14.9095 9.27279 13.7601 8.51256C14.3398 8.6528 14.8934 8.8844 15.4003 9.19868C16.5032 9.8842 17.3702 10.8905 17.8851 12.0826C17.9398 12.2193 18.2077 13.0339 18.276 13.3209C18.2678 13.4441 18.3015 13.5665 18.3717 13.6681C18.4206 13.7395 18.4857 13.7983 18.5617 13.8397C18.6378 13.881 18.7225 13.9037 18.809 13.9059C18.809 13.9059 18.809 13.9059 18.8255 13.9059C18.9042 13.9062 18.9821 13.8896 19.0538 13.857C19.1255 13.8244 19.1894 13.7768 19.241 13.7173C19.3175 13.6321 19.3653 13.525 19.3776 13.4111C19.6506 12.7107 19.7581 11.9567 19.692 11.2079C19.6327 10.271 19.3464 9.36273 18.8578 8.56123C18.3692 7.75974 17.6929 7.08914 16.8874 6.60726C16.0252 6.06831 15.0283 5.78403 14.0116 5.78719C13.692 5.78727 13.3729 5.81378 13.0576 5.86646C13.5635 5.58189 14.1103 5.37719 14.6786 5.25961C15.9343 4.99331 17.2417 5.12616 18.4181 5.63958C18.5494 5.70245 19.2847 6.11248 19.5116 6.27103C19.5631 6.33705 19.629 6.39037 19.7044 6.42686C19.7798 6.46336 19.8625 6.48205 19.9462 6.48151C20.0491 6.48398 20.1507 6.45734 20.2391 6.40465C20.3276 6.35197 20.3993 6.27537 20.4462 6.18369C20.493 6.09201 20.513 5.98897 20.5039 5.88642C20.4947 5.78387 20.4568 5.68599 20.3945 5.60404C20.131 4.89953 19.7059 4.26663 19.1535 3.75615C18.1077 2.76311 16.7248 2.20256 15.2827 2.18708C14.8573 2.187 14.4334 2.23747 14.0198 2.33742C12.7765 2.60431 11.6628 3.29051 10.8653 4.28099C10.699 3.26377 10.2215 2.3231 9.49851 1.58843C9.02003 1.08103 8.44182 0.67802 7.80017 0.404711C7.15853 0.131402 6.46732 -0.00630954 5.76992 0.000221913C5.48864 -0.000763187 5.20782 0.0230196 4.93072 0.0712947C4.26422 0.171424 3.63094 0.428106 3.08282 0.820293C2.94778 0.854875 2.83105 0.939734 2.7565 1.05752C2.68195 1.17531 2.6552 1.31712 2.68173 1.45397C2.70826 1.59082 2.78607 1.71237 2.89924 1.79376C3.01241 1.87515 3.1524 1.91024 3.29058 1.89185C3.34419 1.89211 3.39758 1.88475 3.44912 1.86998C3.75528 1.86998 4.47148 1.93832 4.54255 1.94652C5.66391 2.14751 6.69589 2.68975 7.49754 3.49919C7.76089 3.76396 7.99378 4.05736 8.19187 4.37393C7.36345 3.70549 6.34154 3.32203 5.27788 3.2805C4.43978 3.23157 3.60251 3.38948 2.8398 3.74033C2.0771 4.09117 1.41237 4.62418 0.904169 5.29241C0.485767 5.82314 0.198268 6.44496 0.0649634 7.1075C-0.00391047 7.23655 -0.0186994 7.38767 0.0238501 7.52762C0.0663995 7.66758 0.162802 7.78489 0.29185 7.85377C0.420897 7.92264 0.57202 7.93743 0.711972 7.89488C0.851923 7.85233 0.96924 7.75593 1.03811 7.62688C1.22946 7.45193 1.80078 7.00089 1.89372 6.93529C2.84856 6.31617 3.97122 6.00687 5.1084 6.04961C5.50819 6.06469 5.9047 6.12802 6.2893 6.23823C5.19545 6.30526 4.15494 6.73416 3.33158 7.4574C2.68813 7.99911 2.18723 8.69024 1.87272 9.47034C1.5582 10.2504 1.43964 11.0957 1.52742 11.9323C1.58456 12.6049 1.79899 13.2548 2.15341 13.8293C2.188 13.9414 2.25769 14.0393 2.35219 14.1087C2.44669 14.1781 2.56101 14.2153 2.67826 14.2148C2.71371 14.2182 2.74941 14.2182 2.78486 14.2148C2.87033 14.1983 2.95063 14.1617 3.01909 14.108C3.08756 14.0543 3.14221 13.985 3.1785 13.9059C3.22979 13.7948 3.2423 13.6696 3.21404 13.5505C3.23317 13.2772 3.33978 12.5692 3.36438 12.4571C3.63142 11.3381 4.23767 10.329 5.1002 9.56771C6.0818 8.71975 7.33758 8.25648 8.6347 8.2638C8.77685 8.2638 8.90806 8.2638 9.05841 8.2802H9.10214C6.16902 12.848 5.4911 21.0214 6.40411 27.1801C6.02499 27.2939 5.66681 27.4684 5.34349 27.6967C4.94419 28.0053 4.4511 28.1674 3.94663 28.156C3.44123 28.168 2.94707 28.0059 2.54704 27.6967C1.97154 27.2722 1.27206 27.0492 0.557006 27.0626C0.412008 27.0626 0.27295 27.1202 0.170421 27.2227C0.067892 27.3252 0.010292 27.4643 0.010292 27.6093C0.010292 27.7543 0.067892 27.8933 0.170421 27.9959C0.27295 28.0984 0.412008 28.156 0.557006 28.156C1.06241 28.144 1.55657 28.3061 1.95659 28.6152C2.5321 29.0398 3.23158 29.2627 3.94663 29.2494C4.66172 29.2629 5.36126 29.04 5.93667 28.6152C6.3367 28.3061 6.83086 28.144 7.33626 28.156C7.84073 28.1446 8.33382 28.3067 8.73311 28.6152C9.30862 29.0398 10.0081 29.2627 10.7232 29.2494C11.4382 29.2627 12.1377 29.0398 12.7132 28.6152C13.1182 28.3166 13.6082 28.1555 14.1114 28.1555C14.6146 28.1555 15.1046 28.3166 15.5096 28.6152C16.0913 29.0275 16.7867 29.2489 17.4997 29.2489C18.2126 29.2489 18.908 29.0275 19.4897 28.6152C19.8949 28.317 20.3848 28.1562 20.8879 28.1562C21.391 28.1562 21.8809 28.317 22.2861 28.6152C22.8683 29.0277 23.5641 29.2493 24.2776 29.2493C24.991 29.2493 25.6868 29.0277 26.269 28.6152C26.6742 28.317 27.1641 28.1562 27.6672 28.1562C28.1703 28.1562 28.6602 28.317 29.0654 28.6152C29.6479 29.028 30.3442 29.2496 31.0582 29.2496C31.7721 29.2496 32.4684 29.028 33.0509 28.6152C33.4519 28.3059 33.947 28.1438 34.4533 28.156C34.5983 28.156 34.7373 28.0984 34.8399 27.9959C34.9424 27.8933 35 27.7543 35 27.6093C35 27.4643 34.9424 27.3252 34.8399 27.2227C34.7373 27.1202 34.5983 27.0626 34.4533 27.0626ZM8.48436 23.7823C8.03451 23.7771 7.58716 23.7147 7.15311 23.5964C7.10117 22.503 7.09844 21.3904 7.15311 20.3161C7.49267 20.4375 7.85039 20.5004 8.211 20.502C8.57452 20.5124 8.93659 20.452 9.27709 20.3243C9.42545 21.4944 9.64361 22.6546 9.93042 23.7987L9.79647 23.621L9.82654 23.5991C9.82654 23.5991 9.49031 23.7823 8.48436 23.7823ZM9.47938 9.85474C9.23196 11.4846 9.08045 13.1276 9.0256 14.7752C8.92867 14.801 8.84072 14.853 8.77138 14.9255C8.59757 15.0109 8.40418 15.0487 8.211 15.0349C8.0668 15.0323 7.92387 15.0074 7.7873 14.961C8.12668 13.1926 8.69551 11.4759 9.47938 9.85474ZM8.211 16.1283C8.48057 16.1324 8.74908 16.0937 9.00647 16.0135C9.00647 17.044 9.05021 18.0937 9.14861 19.1598C9.06717 19.1833 8.9923 19.2254 8.92993 19.2828C8.70491 19.3853 8.45744 19.4286 8.211 19.4086C7.91251 19.399 7.61889 19.3302 7.34719 19.2063C7.30362 19.1867 7.25767 19.1729 7.21051 19.1653C7.28979 18.0937 7.41553 17.0468 7.58501 16.0381C7.78879 16.0956 7.99927 16.1259 8.211 16.1283ZM15.0449 12.0607C15.2505 12.7563 15.294 13.4897 15.1722 14.2047C15.0505 14.9197 14.7666 15.5974 14.3424 16.1857C14.6595 14.9181 14.6482 13.5906 14.3096 12.3286C13.9665 11.0473 13.2747 9.88629 12.3114 8.97453C12.9737 9.24396 13.565 9.66261 14.0391 10.1979C14.5132 10.7332 14.8574 11.3707 15.0449 12.0607ZM16.327 7.54487C16.9502 7.91225 17.4797 8.4192 17.8739 9.02586C18.2681 9.63253 18.5161 10.3224 18.5986 11.0411C17.9778 9.90681 17.0737 8.95276 15.9743 8.272C14.8698 7.58731 13.5945 7.2282 12.295 7.23598H12.243C12.8056 7.0039 13.4085 6.885 14.0171 6.88608C14.8338 6.8836 15.6345 7.11198 16.327 7.54487ZM14.2631 3.40352C14.5969 3.32218 14.9392 3.28089 15.2827 3.2805C16.3795 3.29337 17.4359 3.69652 18.2623 4.41767C17.0375 4.00549 15.7247 3.9281 14.4599 4.19352C13.1823 4.46466 12.0067 5.08988 11.0676 5.99767C11.3621 5.34672 11.8042 4.77335 12.3589 4.32305C12.9136 3.87275 13.5655 3.55791 14.2631 3.40352ZM5.61684 1.09365H5.76992C6.31931 1.0893 6.86368 1.1985 7.36888 1.41441C7.87408 1.63032 8.32923 1.94828 8.70578 2.34836C9.10042 2.75003 9.40629 3.23012 9.6036 3.75752C9.80091 4.28492 9.88524 4.84789 9.85114 5.40996C9.5525 4.3991 9.00556 3.47908 8.26021 2.73379C7.5212 1.98572 6.61528 1.42361 5.61684 1.09365ZM4.93072 4.95072C3.95631 4.94601 2.99293 5.15698 2.10967 5.5685C2.85504 4.81291 3.8694 4.38339 4.93072 4.37393C5.01819 4.37393 5.10567 4.37393 5.20407 4.37393C5.7655 4.39905 6.31522 4.54286 6.81703 4.79588C7.31883 5.0489 7.76132 5.40539 8.11533 5.84186C7.20958 5.29776 6.1807 4.99211 5.1248 4.95345L4.93072 4.95072ZM4.384 8.77771C3.60007 9.47043 2.98961 10.3374 2.60172 11.309C2.6147 10.7334 2.75071 10.1673 3.0006 9.6487C3.25049 9.13006 3.60847 8.6709 4.05051 8.30207C4.77539 7.66744 5.70861 7.32198 6.672 7.33165C6.83829 7.33171 7.00443 7.34175 7.16951 7.36172C6.13721 7.58567 5.17873 8.06821 4.384 8.76404V8.77771ZM9.33723 27.7104C8.80359 27.3223 8.1653 27.1041 7.50574 27.0844C7.39093 26.3136 7.30072 25.5345 7.23238 24.7527C7.64442 24.8363 8.06393 24.8775 8.48436 24.8757C9.0514 24.8986 9.61797 24.8199 10.1573 24.6433C10.4901 25.8119 10.9048 26.9555 11.3983 28.0658C11.179 28.1293 10.9515 28.1597 10.7232 28.156C10.2187 28.1674 9.72559 28.0053 9.3263 27.6967L9.33723 27.7104Z" fill="#1C3C6B"/>
<path d="M4.11117 23.7823C4.41311 23.7823 4.65788 23.5375 4.65788 23.2356C4.65788 22.9336 4.41311 22.6888 4.11117 22.6888C3.80923 22.6888 3.56445 22.9336 3.56445 23.2356C3.56445 23.5375 3.80923 23.7823 4.11117 23.7823Z" fill="#1C3C6B"/>
<path d="M32.2462 19.7694H30.371L29.6196 21.2009L25.9479 14.1232H23.0521L19.3804 21.2009L18.629 19.7694H16.7538L14.4102 24.4571H34.5898L32.2462 19.7694Z" fill="#43CAF9"/>
<path d="M32.916 12.2344C32.916 12.2356 32.9164 12.2364 32.9164 12.2377C33.0198 12.1975 33.1293 12.1696 33.2433 12.1581C33.2626 12.1564 33.2819 12.1548 33.3011 12.154C33.3204 12.1528 33.3397 12.1523 33.3594 12.1523C34.039 12.1523 34.5898 12.7032 34.5898 13.3828C34.5898 14.0624 34.039 14.6133 33.3594 14.6133H30.8984C29.766 14.6133 28.8477 13.6949 28.8477 12.5625C28.8477 11.4301 29.766 10.5117 30.8984 10.5117C31.9185 10.5117 32.7581 11.2586 32.916 12.2344Z" fill="#E5F5FD"/>
<path d="M32.2444 19.7694L31.3068 21.1758L30.3691 19.7694L31.3068 17.8945L32.2444 19.7694Z" fill="#EEFAFF"/>
<path d="M28.6016 8.05078L24.5 9.69141V6.41016L28.6016 8.05078Z" fill="#94DFFB"/>
<path d="M24.4986 11.332L25.9465 14.1231L24.4986 16.2539L23.0508 14.1231L24.4986 11.332Z" fill="#E5F5FD"/>
<path d="M18.6272 19.7695L17.6896 21.1759L16.752 19.7695L17.6896 17.8947L18.6272 19.7695Z" fill="#E5F5FD"/>
<path d="M14.0613 24.6727C14.136 24.7936 14.268 24.8672 14.4102 24.8672H22.6543C22.8808 24.8672 23.0645 24.6836 23.0645 24.457C23.0645 24.2305 22.8808 24.0469 22.6543 24.0469H18.3662L23.1082 14.9058L24.1587 16.4815C24.2348 16.5956 24.3628 16.6641 24.5 16.6641C24.6371 16.6641 24.7652 16.5956 24.8412 16.4815L25.8917 14.9058L30.6338 24.0469H26.3457C26.1192 24.0469 25.9355 24.2305 25.9355 24.457C25.9355 24.6836 26.1192 24.8672 26.3457 24.8672H34.5898C34.732 24.8672 34.864 24.7936 34.9388 24.6727C35.0135 24.5517 35.0203 24.4008 34.9567 24.2736C34.6364 23.6329 32.0017 18.3634 31.6755 17.7111C31.606 17.5721 31.4639 17.4844 31.3086 17.4844C31.1533 17.4844 31.0112 17.5722 30.9417 17.7111C30.7082 18.1781 29.9938 19.6069 29.6311 20.3325L24.9102 11.232V9.96908L28.7539 8.43157C28.9096 8.36931 29.0117 8.2185 29.0117 8.05078C29.0117 7.88307 28.9096 7.73226 28.7539 7.66995L24.6523 6.02933C24.526 5.9788 24.3828 5.99422 24.2701 6.07051C24.1574 6.1468 24.0898 6.27403 24.0898 6.41016V11.232L19.3689 20.3325C19.0065 19.6076 18.2922 18.1789 18.0582 17.711C17.9888 17.5721 17.8468 17.4844 17.6914 17.4844C17.536 17.4844 17.394 17.5722 17.3246 17.7111C16.9984 18.3634 14.3635 23.6332 14.0433 24.2736C13.9797 24.4008 13.9865 24.5517 14.0613 24.6727ZM24.5 15.5145L23.5396 14.0741L24.5 12.2228L25.4604 14.0741L24.5 15.5145ZM31.3086 18.8115L31.7729 19.74L31.3086 20.4364L30.8443 19.74L31.3086 18.8115ZM30.4218 20.5851L30.9673 21.4033C31.0433 21.5174 31.1714 21.5859 31.3086 21.5859C31.4457 21.5859 31.5738 21.5174 31.6498 21.4033L32.1953 20.5851L33.9262 24.0469H31.5579L30.0981 21.2327L30.4218 20.5851ZM24.9102 7.01596L27.4972 8.05078L24.9102 9.08557V7.01596ZM17.6914 18.8115L18.1556 19.74L17.6914 20.4364L17.2271 19.74L17.6914 18.8115ZM16.8046 20.585L17.3501 21.4033C17.4262 21.5174 17.5542 21.5859 17.6914 21.5859C17.8286 21.5859 17.9566 21.5174 18.0327 21.4033L18.5781 20.5851L18.9019 21.2327L17.4421 24.0469H15.0738L16.8046 20.585Z" fill="#1C3C6B"/>
<path d="M33.3594 11.7422C33.3323 11.7422 33.3059 11.7428 33.2795 11.7444C33.2794 11.7444 33.2793 11.7444 33.2792 11.7444C33.2579 11.7454 33.2365 11.747 33.2152 11.7488C32.8773 10.773 31.9616 10.1016 30.8984 10.1016C29.5415 10.1016 28.4375 11.2055 28.4375 12.5625C28.4375 13.9195 29.5415 15.0234 30.8984 15.0234H33.3594C34.264 15.0234 35 14.2875 35 13.3828C35 12.4782 34.264 11.7422 33.3594 11.7422ZM33.3594 14.2031H30.8984C29.9938 14.2031 29.2578 13.4671 29.2578 12.5625C29.2578 11.6579 29.9938 10.9219 30.8984 10.9219C31.6074 10.9219 32.2176 11.3712 32.4417 12.0236C32.1805 12.2006 31.9717 12.4509 31.8479 12.7442C31.7597 12.9528 31.8574 13.1934 32.0661 13.2816C32.2743 13.3695 32.5152 13.2725 32.6035 13.0633C32.7266 12.7719 33.0201 12.5625 33.3594 12.5625C33.8117 12.5625 34.1797 12.9305 34.1797 13.3828C34.1797 13.8351 33.8117 14.2031 33.3594 14.2031Z" fill="#1C3C6B"/>
<path d="M22.9892 19.146C22.7743 19.0744 22.542 19.1905 22.4704 19.4054L21.6501 21.8664C21.5784 22.0812 21.6946 22.3135 21.9095 22.3852C22.1249 22.4569 22.3568 22.3403 22.4283 22.1257L23.2486 19.6648C23.3202 19.4499 23.2041 19.2177 22.9892 19.146Z" fill="#1C3C6B"/>
<path d="M27.0907 22.3852C27.3056 22.3135 27.4218 22.0813 27.3502 21.8664L26.5298 19.4054C26.4582 19.1906 26.226 19.0744 26.011 19.146C25.7962 19.2177 25.68 19.4499 25.7516 19.6648L26.5719 22.1258C26.6436 22.3406 26.8758 22.4568 27.0907 22.3852Z" fill="#1C3C6B"/>
<path d="M24.5 24.8672C24.7265 24.8672 24.9102 24.6836 24.9102 24.457C24.9102 24.2305 24.7265 24.0469 24.5 24.0469C24.2735 24.0469 24.0898 24.2305 24.0898 24.457C24.0898 24.6836 24.2735 24.8672 24.5 24.8672Z" fill="#1C3C6B"/>
</svg>
