<svg width="130" height="42" viewBox="0 0 130 42" fill="none" xmlns="http://www.w3.org/2000/svg">
<path d="M40.4531 11.8372C39.5882 9.96414 38.147 8.41917 36.3416 7.42969C35.2996 6.85817 34.1598 6.48812 32.9817 6.33877C31.6548 6.1705 30.3076 6.28105 29.0255 6.66338L28.8964 6.70254C26.1617 7.56371 23.6257 8.96361 21.4367 10.8203L21.3454 10.8559C20.8924 10.8845 20.4359 10.9006 19.9754 10.9006C12.5735 10.9006 6.04563 7.15872 2.15894 1.45782C2.33257 9.43179 6.79635 16.3438 13.3254 19.9643C11.7526 22.4107 10.4494 25.0213 9.43873 27.7503C9.39737 27.8619 9.35562 27.9731 9.31543 28.0851C7.8885 32.0469 7.0911 36.2092 6.95243 40.4196C8.18743 36.3071 10.6109 32.6548 13.9158 29.9255C14.1065 29.7673 14.3 29.6124 14.4964 29.4607C15.2066 29.5426 15.9209 29.5838 16.6358 29.584C21.1202 29.5908 25.4554 27.9678 28.8398 25.0152L28.8952 25.0191L28.8515 25.005C30.0698 23.9424 31.1461 22.7263 32.0538 21.3869C32.3483 20.9522 32.6247 20.5048 32.883 20.0446C33.1829 19.5105 33.456 18.9603 33.7024 18.3941C34.1254 17.6463 34.5009 16.8724 34.8269 16.0772C35.9718 14.965 37.4847 14.3148 39.0768 14.2506C40.669 14.1864 42.2289 14.7127 43.4591 15.7291C43.0035 14.0868 41.9242 12.6895 40.4531 11.8372Z" fill="url(#paint0_linear_347_424)"/>
<path d="M36.6 20.4557C35.6534 20.8995 34.9687 21.6188 34.546 22.6137C34.1233 23.6085 33.9114 24.9366 33.9104 26.5979C33.9104 28.3503 34.1264 29.7613 34.5585 30.8308C34.9906 31.9003 35.6752 32.6797 36.6125 33.1689C37.5489 33.6576 38.7895 33.9019 40.3341 33.9019C40.6853 33.9019 41.0294 33.8886 41.3654 33.8647C41.276 34.9646 40.7938 35.7333 39.9108 36.247C38.9271 36.8183 37.3086 37.0873 35.0111 37.0873L35.0131 40.5422C38.5053 40.5422 41.0785 39.9472 42.7326 38.7574C44.3868 37.5675 45.2138 35.7185 45.2138 33.2104V20.6773C43.8719 20.0869 42.2545 19.7917 40.3618 19.792C38.7995 19.792 37.5456 20.0132 36.6 20.4557ZM41.4056 23.3768L41.3888 30.4251C41.2643 30.4506 41.1469 30.4737 41.0376 30.4933C40.7056 30.5554 40.3687 30.5876 40.0309 30.5896C39.4242 30.5896 38.9755 30.4901 38.6446 30.2591C38.3137 30.0281 38.0593 29.658 37.922 29.0773C37.7846 28.4966 37.7152 27.6986 37.7152 26.6841C37.7152 25.762 37.7794 25.0427 37.9079 24.5261C38.0364 24.0095 38.2575 23.6452 38.5712 23.4332C38.8834 23.2215 39.3153 23.1154 39.8671 23.1149C40.2106 23.1186 40.5526 23.1604 40.887 23.2394C41.0419 23.2715 41.216 23.3185 41.4056 23.3768ZM52.6579 19.7936C50.6177 19.7936 49.1198 20.3514 48.1641 21.4671C47.2084 22.5829 46.7304 24.3306 46.7301 26.7103V27.8169C46.7301 30.1961 47.2081 31.9436 48.1641 33.0596C49.1201 34.1756 50.618 34.7332 52.6579 34.7324C54.6978 34.7324 56.1958 34.1744 57.1517 33.0584C58.1077 31.9425 58.5856 30.1949 58.5853 27.8157V26.7087C58.5853 24.3293 58.1075 22.5816 57.1517 21.4656C56.196 20.3496 54.6981 19.7917 52.6579 19.792V19.7936ZM54.7259 27.54C54.7259 28.9424 54.5699 29.9293 54.2577 30.5007C53.9455 31.0724 53.4122 31.3199 52.6579 31.3199C51.9037 31.3199 51.3949 31.0458 51.0823 30.4749C50.7698 29.9039 50.5899 28.9422 50.5899 27.5381L50.6137 26.9899C50.6137 25.5884 50.7487 24.7282 51.0613 24.1561C51.3738 23.584 51.9041 23.2692 52.6579 23.2692C53.4118 23.2692 53.969 23.5456 54.2815 24.1169C54.594 24.6882 54.7255 25.5822 54.7255 26.9836L54.7259 27.54ZM59.4535 19.9756H69.1029V21.9178L62.0174 32.408V32.5189H69.1029V34.4818H59.4535V32.5189L66.539 22.0247V21.9124H59.4535V19.9756ZM80.2351 21.9088C79.9409 21.1437 79.3899 20.7067 78.6743 20.3927C77.9587 20.0786 77.0238 19.9772 75.7752 19.9772C74.9026 19.975 74.0312 20.0444 73.1699 20.1847C72.3333 20.3228 71.5935 20.5211 70.9505 20.7795V22.6329C71.4742 22.4419 72.0084 22.2809 72.5503 22.1504C73.0303 22.037 73.5171 21.9547 74.0076 21.9041C74.517 21.8484 75.0291 21.821 75.5415 21.8223C76.3683 21.8223 77.0019 21.9092 77.4339 22.0843C77.8658 22.2593 78.1635 22.5412 78.3106 23.0393C78.4577 23.5374 78.5315 24.1639 78.5315 25.1045V25.4725L77.0979 25.4819C74.8184 25.4819 73.0954 25.8614 71.9283 26.6363C70.7612 27.4112 70.2017 28.4743 70.2017 30.0038C70.2017 31.4612 70.7015 32.5529 71.7492 33.3921C72.7969 34.2312 74.2008 34.6412 76.039 34.6412C76.8838 34.639 77.7268 34.5603 78.5576 34.4062C79.4028 34.2496 80.1371 34.0358 80.7072 33.759L80.6818 25.0481C80.6822 23.7022 80.5289 22.6744 80.2351 21.9088ZM75.9953 32.8783C74.8738 32.8783 73.9916 32.6201 73.3486 32.1038C72.7056 31.5874 72.3839 30.8865 72.3836 30.0011C72.3836 29.0613 72.7738 28.3604 73.5542 27.8983C74.3346 27.4363 75.5247 27.2056 77.1245 27.2064H78.5292V32.3849C78.2646 32.495 77.9927 32.5866 77.7156 32.659C77.1539 32.8059 76.5757 32.8796 75.9953 32.8783V32.8783ZM91.1487 19.7889H93.4926L88.3471 35.2559C87.9614 36.3811 87.4882 37.3403 86.9276 38.1336C86.3671 38.9269 85.6777 39.5264 84.8596 39.9321C84.0418 40.3372 83.0533 40.5401 81.8942 40.5406V38.4939C82.7577 38.4939 83.4885 38.3435 84.0859 38.0212C84.6832 37.699 85.1839 37.2036 85.5885 36.5031C85.956 35.8648 86.2108 35.1267 86.434 34.165L81.0818 19.7889H83.4257L87.3966 31.2353H87.4915L91.1487 19.7889ZM102.366 20.3547C101.649 20.0414 100.666 19.8848 99.4157 19.8848C98.5431 19.8826 97.6717 19.952 96.8104 20.0923C95.9738 20.2309 95.2574 20.4209 94.614 20.6797V22.5886C95.1206 22.3999 95.6377 22.241 96.1627 22.1125C96.6529 21.9936 97.1501 21.9059 97.6512 21.8497C98.164 21.7935 98.6794 21.7658 99.1952 21.7667C100.022 21.7667 100.652 21.8219 101.084 21.9969C101.516 22.172 101.838 22.5087 101.985 23.0064C102.133 23.5041 102.207 24.1639 102.207 25.1045V25.3754H100.74C98.4609 25.3754 96.7359 25.7646 95.5653 26.5431C94.3978 27.3176 93.8391 28.4563 93.8391 29.9889C93.8391 31.446 94.4049 32.5756 95.4525 33.4144C96.5002 34.2531 97.8822 34.631 99.7204 34.631C100.556 34.6352 101.39 34.563 102.212 34.4152C103.057 34.2586 103.797 34.0284 104.367 33.7496V25.0485C104.367 23.7022 104.177 22.7382 103.883 21.9734C103.59 21.2087 103.082 20.6687 102.365 20.3547H102.366ZM99.6365 32.7871C98.5151 32.7871 97.6805 32.5502 97.0375 32.0337C96.3944 31.5172 96.0515 30.8884 96.0515 30.003C96.0515 29.0632 96.4229 28.3193 97.2045 27.858C97.986 27.3967 99.1679 27.1594 100.767 27.1594L102.198 27.1563L102.177 32.2769C101.915 32.4033 101.641 32.5048 101.36 32.5799C100.796 32.7231 100.217 32.7928 99.6358 32.7871H99.6365ZM114.232 20.4475C113.515 20.1342 112.532 19.9776 111.282 19.9776C110.41 19.9754 109.538 20.0448 108.677 20.1851C107.84 20.3232 107.101 20.5215 106.457 20.7799V22.6462C106.966 22.4534 107.485 22.29 108.013 22.1567C108.512 22.0373 109.018 21.949 109.529 21.8924C110.021 21.8366 110.516 21.8094 111.011 21.8109C111.838 21.8109 112.406 21.8677 112.839 22.0431C113.271 22.2186 113.649 22.4758 113.796 22.9739C113.943 23.472 114.037 24.1635 114.037 25.1041V25.4733L112.603 25.4788C110.324 25.4788 108.63 25.8312 107.463 26.6069C106.296 27.3826 105.684 28.4982 105.684 30.0289C105.684 31.4863 106.225 32.567 107.272 33.4062C108.32 34.2453 109.745 34.6314 111.583 34.6314C112.416 34.6312 113.246 34.5545 114.065 34.4023C114.91 34.2457 115.618 34.0366 116.188 33.7598V25.0485C116.188 23.7022 116.04 22.8318 115.746 22.0662C115.453 21.3007 114.948 20.7615 114.231 20.4475H114.232ZM111.512 32.809C110.391 32.809 109.499 32.5651 108.856 32.0486C108.213 31.5321 107.891 30.8864 107.891 30.0011C107.891 29.0613 108.298 28.3764 109.08 27.9152C109.861 27.4539 111.034 27.2417 112.633 27.2417H114.038V32.3227C113.773 32.4303 113.501 32.5201 113.224 32.5917C112.665 32.7381 112.089 32.8112 111.511 32.809H111.512ZM127.842 25.0485V34.4552H125.691V25.1593C125.691 24.2555 125.599 23.6474 125.416 23.1493C125.232 22.6513 124.906 22.3055 124.437 22.1117C123.968 21.9178 123.311 21.8211 122.466 21.8211C122.069 21.8193 121.673 21.8471 121.28 21.9041C120.906 21.9613 120.537 22.0493 120.177 22.1673C120.019 22.219 119.853 22.2824 119.681 22.3564V34.456H117.531V20.8626C118.229 20.4565 118.974 20.2306 119.764 20.0919C120.553 19.9533 121.445 19.8844 122.438 19.8844C123.835 19.8844 124.924 20.041 125.705 20.3543C126.487 20.6676 127.038 21.2073 127.358 21.9734C127.68 22.739 127.841 23.7022 127.841 25.0485H127.842Z" fill="url(#paint1_linear_347_424)"/>
<defs>
<linearGradient id="paint0_linear_347_424" x1="2.15894" y1="20.9385" x2="43.4607" y2="20.9385" gradientUnits="userSpaceOnUse">
<stop stop-color="#01026E"/>
<stop offset="1" stop-color="#1D4DA2"/>
</linearGradient>
<linearGradient id="paint1_linear_347_424" x1="33.9104" y1="30.1655" x2="127.841" y2="30.1655" gradientUnits="userSpaceOnUse">
<stop stop-color="#1D4DA2"/>
<stop offset="1" stop-color="#01026E"/>
</linearGradient>
</defs>
</svg>
